<svg xmlns="http://www.w3.org/2000/svg" version="1.1" xmlns:xlink="http://www.w3.org/1999/xlink" width="580" height="1023"><svg width="580" height="1023" viewBox="0 0 580 1023" fill="none" xmlns="http://www.w3.org/2000/svg">
<path d="M81.1 362.533C38.1666 447.067 10.3 541.733 1.5 633.333C-0.500002 654.8 -0.500002 707.867 1.5 729.333C10.3 820.933 38.1666 915.6 81.1 1000.13L92.5667 1022.67H289.633H486.7L498.167 1000.13C554.434 889.6 584.833 759.867 578.967 655.067C573.5 557.6 545.1 454.8 498.167 362.533L486.7 340H289.633H92.5667L81.1 362.533Z" fill="#9DB89D"></path>
<path d="M81.1 362.533C38.1667 447.067 10.3 541.733 1.5 633.333C-0.5 654.8 -0.5 707.867 1.5 729.333C10.3 820.933 38.1667 915.6 81.1 1000.13L92.5667 1022.67H289.633H486.7L498.167 1000.13C554.433 889.6 584.833 759.867 578.967 655.067C573.5 557.6 545.1 454.8 498.167 362.533L486.7 340H289.633H92.5667L81.1 362.533ZM186.433 382.933C186.033 384.667 183.767 396.667 181.367 409.6L177.1 433.333H134.833H92.5667L97.5 421.6C100.3 415.2 105.767 403.2 109.633 394.933L116.7 380H152.033H187.233L186.433 382.933ZM355.9 403.333C358.167 415.733 360.433 427.6 360.833 429.6L361.633 433.333H289.5C221.5 433.333 217.5 433.2 218.167 430.933C218.567 429.733 219.5 424.8 220.3 420C222.3 408.267 226.967 383.733 227.633 381.6C228.167 380.267 241.233 380 289.9 380.267L351.633 380.667L355.9 403.333ZM470.033 395.6C474.167 404.267 479.5 416.267 482.167 422.267L486.7 433.333H444.433H402.167L397.9 409.6C395.5 396.667 393.233 384.667 392.833 382.933L392.033 380H427.233H462.567L470.033 395.6ZM504.567 481.333C505.9 485.333 509.1 495.467 511.5 503.6L516.033 518.667H289.633H63.1L64.3 514.933C64.9667 512.933 67.6333 504.133 70.3 495.467C72.9667 486.8 75.7667 478.267 76.4333 476.533L77.6333 473.333L289.767 473.6L502.033 474L504.567 481.333ZM161.1 563.6C155.5 601.467 155.5 761.2 161.1 799.067L161.9 804L107.5 803.733L52.9667 803.333L50.0333 788C45.6333 764.533 41.9 733.733 40.1667 706.267C37.9 669.067 41.1 625.2 48.9667 580.667C50.8333 570.4 52.7 561.2 52.9667 560.267C53.3667 559.067 65.6333 558.667 107.767 558.667H161.9L161.1 563.6ZM378.167 565.6C383.9 616.933 383.9 745.733 378.167 796.933L377.367 804H289.633H201.9L201.1 796.933C195.367 745.733 195.367 616.933 201.1 565.6L201.9 558.667H289.633H377.367L378.167 565.6ZM529.233 574.667C536.567 613.067 541.1 666.133 539.633 696.667C538.033 730.267 531.767 780.8 526.833 798.933L525.5 804H471.5H417.367L418.167 798.933C423.767 762 423.767 600.667 418.167 563.6L417.367 558.667L471.767 558.933L526.3 559.333L529.233 574.667ZM511.5 859.067C509.1 867.2 505.9 877.333 504.567 881.333L502.033 888.667H289.633H77.2333L74.7 881.333C73.3667 877.333 70.1667 867.2 67.7667 858.933L63.2333 844H289.633H516.033L511.5 859.067ZM181.367 952.933C183.767 966 186.033 978 186.433 979.6L187.233 982.667H152.033H116.7L109.233 966.933C105.1 958.4 99.7667 946.4 97.1 940.267L92.5667 929.333H134.833H177.1L181.367 952.933ZM360.833 932.933C360.433 935.067 358.167 946.8 355.9 959.333L351.633 982H289.633H227.767L226.7 976.667C226.033 973.733 224.033 963.2 222.3 953.333C220.433 943.467 218.7 934 218.3 932.267L217.633 929.333H289.633H361.633L360.833 932.933ZM481.767 941.067C478.967 947.467 473.5 959.467 469.633 967.733L462.567 982.667H427.233H392.033L392.833 979.6C393.233 978 395.5 966 397.9 952.933L402.167 929.333H444.433H486.7L481.767 941.067Z" fill="#2D4739"></path>
<path d="M87.2678 98.8837V197.354L56.1339 228.384L25 259.415L25.6206 271.31C26.8618 299.134 38.0331 324.268 57.4785 343.404C64.6154 350.334 215.114 470.422 228.663 479.938C237.558 486.247 251.005 492.35 262.9 495.453C271.795 497.832 274.899 498.142 290 498.142C305.101 498.142 308.205 497.832 317.1 495.453C328.995 492.35 342.442 486.247 351.337 479.938C365.197 470.318 514.454 351.265 522.004 343.817C541.967 324.268 553.035 299.444 554.379 271.31L555 259.415L523.866 228.384L492.732 197.354V98.6769V6.10352e-05L475.459 0.620667C449.807 1.44815 431.602 5.99927 410.605 16.5496C398.296 22.6523 393.538 26.0656 368.714 45.7183L347.717 62.3713H290.103H232.387L211.39 45.7183C199.805 36.616 187.703 27.3069 184.6 25.2382C159.983 8.79202 131.434 0.413818 99.9902 0.310394H87.2678V98.8837Z" fill="#9DB89D"></path>
<path d="M87.2678 98.8837V197.354L56.1339 228.384L25 259.415L25.6206 271.31C26.8618 299.134 38.0328 324.268 57.4785 343.404C64.6155 350.334 215.113 470.422 228.663 479.938C237.559 486.247 251.005 492.35 262.9 495.453C271.795 497.832 274.899 498.142 290 498.142C305.101 498.142 308.205 497.832 317.1 495.453C328.995 492.35 342.441 486.247 351.337 479.938C365.197 470.318 514.454 351.265 522.004 343.817C541.967 324.268 553.035 299.444 554.379 271.31L555 259.415L523.866 228.384L492.732 197.354V98.6768V6.10352e-05L475.459 0.620667C449.807 1.44815 431.602 5.99927 410.605 16.5496C398.296 22.6523 393.538 26.0656 368.714 45.7182L347.717 62.3712H290.103H232.387L211.39 45.7182C199.805 36.616 187.703 27.3069 184.6 25.2382C159.982 8.79202 131.434 0.413788 99.9902 0.310364H87.2678V98.8837ZM126.263 33.8232C130.09 34.6507 136.813 36.5125 141.054 37.9606C145.295 39.4087 148.915 40.6499 149.122 40.6499C149.225 40.6499 149.329 51.2003 149.329 64.2331V87.7128L142.399 93.0914C138.468 95.9875 131.538 102.297 126.883 107.159L118.298 115.95V74.1628C118.298 51.2003 118.505 32.3752 118.712 32.3752C119.022 32.3752 122.332 32.9958 126.263 33.8232ZM461.909 74.0594L461.702 115.847L452.6 106.641C447.635 101.47 440.705 95.1601 437.188 92.5742L430.671 87.8162V64.3365V40.9602L435.119 39.2018C440.084 37.34 458.185 32.4786 460.667 32.3752C462.012 32.3752 462.219 37.5469 461.909 74.0594ZM202.287 78.0933L221.526 93.4017H290.207L358.784 93.2982L378.954 77.2658L399.124 61.2335L399.641 83.472L400.158 105.71L407.399 110.055C426.948 121.743 440.394 136.327 450.324 156.393C457.461 170.771 461.702 188.458 461.702 203.456V210.8L492.629 241.727C527.59 276.688 524.487 271.93 520.97 286.101C518.591 296.03 509.696 313.718 507.213 313.718C506.799 313.718 506.075 312.063 505.765 310.098C505.351 308.132 503.179 302.754 500.8 297.996C496.87 289.928 494.698 287.549 469.046 261.69C441.946 234.28 434.188 227.557 423.948 222.385C410.398 215.662 392.607 212.972 377.196 215.455C332.512 222.592 303.24 267.172 314.307 311.235C315.135 314.545 318.031 321.786 320.72 327.164C325.375 336.68 326.306 337.818 349.682 361.505C377.402 389.536 378.437 391.087 378.437 404.223C378.437 411.153 377.92 413.326 375.644 417.67C372.231 424.083 370.059 426.151 349.475 442.391C324.03 462.457 312.756 467.215 290 467.215C266.003 467.215 255.97 462.767 226.905 439.598C209.735 425.841 207.562 423.772 204.356 417.67C202.08 413.326 201.563 411.153 201.563 404.223C201.563 391.087 202.598 389.536 230.318 361.505C253.694 337.818 254.625 336.68 259.28 327.164C261.969 321.786 264.865 314.545 265.693 311.235C275.002 274.206 255.66 235.107 220.802 220.523C200.115 211.835 175.394 212.662 155.535 222.695C145.605 227.763 138.054 234.28 110.437 262.207C85.3025 287.549 83.1304 290.031 79.1998 297.996C76.8208 302.754 74.6487 308.132 74.235 310.098C73.9247 312.063 73.2006 313.718 72.7869 313.718C70.3045 313.718 61.4091 296.03 59.0301 286.101C55.5133 271.93 52.4102 276.688 87.3712 241.727L118.298 210.8V203.56C118.298 176.046 130.4 147.188 150.26 127.432C157.603 120.191 169.085 111.606 177.049 107.469L180.359 105.71V83.472C180.359 65.888 180.669 61.3369 181.704 61.9575C182.324 62.4747 191.633 69.7151 202.287 78.0933ZM202.598 247.106C224.939 252.898 240.144 276.171 236.421 298.927C234.145 312.58 231.042 316.924 204.666 343.714C183.876 364.815 180.256 368.952 177.049 375.468C174.98 379.606 172.705 385.502 171.981 388.708C171.257 391.811 170.533 394.397 170.429 394.397C169.395 394.397 113.23 349.299 110.851 346.61C105.783 340.818 103.507 334.612 103.507 326.647C103.404 313.925 104.438 312.58 136.192 280.929C153.776 263.345 165.982 252.071 168.774 250.726C179.118 245.554 191.633 244.21 202.598 247.106ZM400.986 247.002C412.053 249.899 414.742 252.071 443.808 280.929C475.252 312.27 476.493 313.925 476.596 326.13C476.596 340.507 474.011 343.714 439.256 371.124C423.121 383.95 409.778 394.397 409.571 394.397C409.467 394.397 408.743 391.811 408.019 388.708C407.295 385.502 405.02 379.606 402.951 375.468C399.744 368.952 396.124 364.815 375.334 343.714C355.06 323.13 350.82 318.372 348.027 312.58C341.2 298.72 341.304 284.963 348.441 270.689C357.853 251.45 379.885 241.52 400.986 247.002Z" fill="#2D4739"></path>
<path d="M274.485 421.29V436.805H290H305.515V421.29V405.775H290H274.485V421.29Z" fill="#2D4739"></path>
<path d="M174.566 276.791C174.359 277.515 174.256 284.652 174.359 292.514L174.67 306.994H190.185H205.7V291.479V275.964L190.392 275.654C178.497 275.447 174.98 275.654 174.566 276.791Z" fill="#2D4739"></path>
<path d="M374.196 276.791C373.989 277.515 373.886 284.652 373.989 292.514L374.3 306.994H389.815H405.33V291.479V275.964L390.022 275.654C378.127 275.447 374.61 275.654 374.196 276.791Z" fill="#2D4739"></path>
</svg><style>@media (prefers-color-scheme: light) { :root { filter: none; } }
@media (prefers-color-scheme: dark) { :root { filter: none; } }
</style></svg>